<mxfile host="65bd71144e">
    <diagram id="K6HRGOD1HG6Nf588dQzy" name="Page-1">
        <mxGraphModel dx="1490" dy="937" grid="0" gridSize="10" guides="1" tooltips="1" connect="1" arrows="1" fold="1" page="1" pageScale="1" pageWidth="2339" pageHeight="3300" math="0" shadow="0">
            <root>
                <mxCell id="0"/>
                <mxCell id="1" parent="0"/>
                <mxCell id="16" value="" style="rounded=1;whiteSpace=wrap;html=1;dashed=1;fontFamily=Ubuntu;fontStyle=1;fontSource=https%3A%2F%2Ffonts.googleapis.com%2Fcss%3Ffamily%3DUbuntu;" vertex="1" parent="1">
                    <mxGeometry x="562" y="129" width="120" height="142" as="geometry"/>
                </mxCell>
                <mxCell id="12" value="" style="rounded=1;whiteSpace=wrap;html=1;dashed=1;fontFamily=Ubuntu;fontStyle=1;fontSource=https%3A%2F%2Ffonts.googleapis.com%2Fcss%3Ffamily%3DUbuntu;" vertex="1" parent="1">
                    <mxGeometry x="359" y="97" width="120" height="209" as="geometry"/>
                </mxCell>
                <mxCell id="2" value="Fluentd" style="ellipse;whiteSpace=wrap;html=1;aspect=fixed;fillColor=#60a917;strokeColor=#2D7600;fontFamily=Ubuntu;fontStyle=1;fontColor=#ffffff;fontSource=https%3A%2F%2Ffonts.googleapis.com%2Fcss%3Ffamily%3DUbuntu;" vertex="1" parent="1">
                    <mxGeometry x="192" y="167" width="80" height="80" as="geometry"/>
                </mxCell>
                <mxCell id="4" value="" style="endArrow=classic;html=1;strokeWidth=3;fillColor=#bac8d3;strokeColor=#CCCCCC;fontFamily=Ubuntu;fontStyle=1;fontSource=https%3A%2F%2Ffonts.googleapis.com%2Fcss%3Ffamily%3DUbuntu;" edge="1" parent="1">
                    <mxGeometry width="50" height="50" relative="1" as="geometry">
                        <mxPoint x="307" y="205" as="sourcePoint"/>
                        <mxPoint x="340" y="205" as="targetPoint"/>
                    </mxGeometry>
                </mxCell>
                <mxCell id="6" value="Redis" style="ellipse;whiteSpace=wrap;html=1;aspect=fixed;fillColor=#647687;strokeColor=#314354;fontFamily=Ubuntu;fontStyle=1;fontColor=#ffffff;fontSource=https%3A%2F%2Ffonts.googleapis.com%2Fcss%3Ffamily%3DUbuntu;" vertex="1" parent="1">
                    <mxGeometry x="377" y="74" width="80" height="80" as="geometry"/>
                </mxCell>
                <mxCell id="7" value="Kafka" style="ellipse;whiteSpace=wrap;html=1;aspect=fixed;fillColor=#647687;strokeColor=#314354;fontFamily=Ubuntu;fontStyle=1;fontColor=#ffffff;fontSource=https%3A%2F%2Ffonts.googleapis.com%2Fcss%3Ffamily%3DUbuntu;" vertex="1" parent="1">
                    <mxGeometry x="377" y="169" width="80" height="80" as="geometry"/>
                </mxCell>
                <mxCell id="8" value="Rabbit&lt;br&gt;MQ" style="ellipse;whiteSpace=wrap;html=1;aspect=fixed;fillColor=#647687;strokeColor=#314354;fontFamily=Ubuntu;fontStyle=1;fontColor=#ffffff;fontSource=https%3A%2F%2Ffonts.googleapis.com%2Fcss%3Ffamily%3DUbuntu;" vertex="1" parent="1">
                    <mxGeometry x="377" y="261" width="80" height="80" as="geometry"/>
                </mxCell>
                <mxCell id="9" value="Data Collection and Source aggregation" style="text;html=1;strokeColor=none;fillColor=none;align=center;verticalAlign=middle;whiteSpace=wrap;rounded=0;fontFamily=Ubuntu;fontStyle=1;fontColor=#CCCCCC;fontSource=https%3A%2F%2Ffonts.googleapis.com%2Fcss%3Ffamily%3DUbuntu;" vertex="1" parent="1">
                    <mxGeometry x="179" y="263" width="114" height="30" as="geometry"/>
                </mxCell>
                <mxCell id="10" value="Logstash" style="ellipse;whiteSpace=wrap;html=1;aspect=fixed;fillColor=#e3c800;strokeColor=#B09500;fontColor=#000000;fontFamily=Ubuntu;fontStyle=1;fontSource=https%3A%2F%2Ffonts.googleapis.com%2Fcss%3Ffamily%3DUbuntu;" vertex="1" parent="1">
                    <mxGeometry x="580" y="114" width="80" height="80" as="geometry"/>
                </mxCell>
                <mxCell id="11" value="Fluentd" style="ellipse;whiteSpace=wrap;html=1;aspect=fixed;fillColor=#a0522d;strokeColor=#6D1F00;fontColor=#ffffff;fontFamily=Ubuntu;fontStyle=1;fontSource=https%3A%2F%2Ffonts.googleapis.com%2Fcss%3Ffamily%3DUbuntu;" vertex="1" parent="1">
                    <mxGeometry x="580" y="220" width="80" height="80" as="geometry"/>
                </mxCell>
                <mxCell id="13" value="" style="endArrow=classic;html=1;strokeWidth=3;fillColor=#bac8d3;strokeColor=#CCCCCC;fontFamily=Ubuntu;fontStyle=1;fontSource=https%3A%2F%2Ffonts.googleapis.com%2Fcss%3Ffamily%3DUbuntu;" edge="1" parent="1">
                    <mxGeometry width="50" height="50" relative="1" as="geometry">
                        <mxPoint x="502" y="205" as="sourcePoint"/>
                        <mxPoint x="535" y="205" as="targetPoint"/>
                    </mxGeometry>
                </mxCell>
                <mxCell id="14" value="Buffering" style="text;html=1;strokeColor=none;fillColor=none;align=center;verticalAlign=middle;whiteSpace=wrap;rounded=0;fontFamily=Helvetica;fontStyle=1;fontColor=#CCCCCC;" vertex="1" parent="1">
                    <mxGeometry x="365" y="353" width="114" height="30" as="geometry"/>
                </mxCell>
                <mxCell id="15" value="Data aggregation &amp;amp; Processing" style="text;html=1;strokeColor=none;fillColor=none;align=center;verticalAlign=middle;whiteSpace=wrap;rounded=0;fontFamily=Ubuntu;fontStyle=1;fontColor=#CCCCCC;fontSource=https%3A%2F%2Ffonts.googleapis.com%2Fcss%3Ffamily%3DUbuntu;" vertex="1" parent="1">
                    <mxGeometry x="540" y="306" width="177" height="30" as="geometry"/>
                </mxCell>
                <mxCell id="17" value="" style="endArrow=classic;html=1;strokeWidth=3;fillColor=#bac8d3;strokeColor=#CCCCCC;fontFamily=Ubuntu;fontStyle=1;fontSource=https%3A%2F%2Ffonts.googleapis.com%2Fcss%3Ffamily%3DUbuntu;" edge="1" parent="1">
                    <mxGeometry width="50" height="50" relative="1" as="geometry">
                        <mxPoint x="713" y="204" as="sourcePoint"/>
                        <mxPoint x="746" y="204" as="targetPoint"/>
                    </mxGeometry>
                </mxCell>
                <mxCell id="18" value="Elasticsearch" style="ellipse;whiteSpace=wrap;html=1;aspect=fixed;fillColor=#00CCCC;strokeColor=#2D7600;fontColor=#ffffff;fontFamily=Ubuntu;fontStyle=1;fontSource=https%3A%2F%2Ffonts.googleapis.com%2Fcss%3Ffamily%3DUbuntu;" vertex="1" parent="1">
                    <mxGeometry x="777" y="167" width="80" height="80" as="geometry"/>
                </mxCell>
                <mxCell id="19" value="Indexing &amp;amp; Storage" style="text;html=1;strokeColor=none;fillColor=none;align=center;verticalAlign=middle;whiteSpace=wrap;rounded=0;fontFamily=Ubuntu;fontStyle=1;fontColor=#CCCCCC;fontSource=https%3A%2F%2Ffonts.googleapis.com%2Fcss%3Ffamily%3DUbuntu;" vertex="1" parent="1">
                    <mxGeometry x="737" y="253" width="177" height="30" as="geometry"/>
                </mxCell>
                <mxCell id="20" value="Kibana" style="ellipse;whiteSpace=wrap;html=1;aspect=fixed;fillColor=#FF66FF;strokeColor=#6c8ebf;fontFamily=Ubuntu;fontStyle=1;fontSource=https%3A%2F%2Ffonts.googleapis.com%2Fcss%3Ffamily%3DUbuntu;" vertex="1" parent="1">
                    <mxGeometry x="955" y="167" width="80" height="80" as="geometry"/>
                </mxCell>
                <mxCell id="21" value="" style="endArrow=classic;html=1;strokeWidth=3;fillColor=#bac8d3;strokeColor=#CCCCCC;fontFamily=Ubuntu;fontStyle=1;fontSource=https%3A%2F%2Ffonts.googleapis.com%2Fcss%3Ffamily%3DUbuntu;" edge="1" parent="1">
                    <mxGeometry width="50" height="50" relative="1" as="geometry">
                        <mxPoint x="892" y="206.5" as="sourcePoint"/>
                        <mxPoint x="925" y="206.5" as="targetPoint"/>
                    </mxGeometry>
                </mxCell>
                <mxCell id="22" value="Analysis &amp;amp; Vizualization" style="text;html=1;strokeColor=none;fillColor=none;align=center;verticalAlign=middle;whiteSpace=wrap;rounded=0;fontFamily=Ubuntu;fontStyle=1;fontColor=#CCCCCC;fontSource=https%3A%2F%2Ffonts.googleapis.com%2Fcss%3Ffamily%3DUbuntu;" vertex="1" parent="1">
                    <mxGeometry x="928" y="253" width="177" height="30" as="geometry"/>
                </mxCell>
                <mxCell id="24" value="" style="rounded=1;whiteSpace=wrap;html=1;dashed=1;fontFamily=Ubuntu;fontColor=#CCCCCC;fillColor=#00CCCC;fontSource=https%3A%2F%2Ffonts.googleapis.com%2Fcss%3Ffamily%3DUbuntu;" vertex="1" parent="1">
                    <mxGeometry x="1100" y="510" width="178" height="399" as="geometry"/>
                </mxCell>
                <mxCell id="28" value="" style="group;fontFamily=Ubuntu;fontSource=https%3A%2F%2Ffonts.googleapis.com%2Fcss%3Ffamily%3DUbuntu;" vertex="1" connectable="0" parent="1">
                    <mxGeometry x="1133" y="600" width="110" height="32" as="geometry"/>
                </mxCell>
                <mxCell id="27" value="" style="html=1;outlineConnect=0;whiteSpace=wrap;fillColor=#AFFFAF;shape=mxgraph.archimate3.application;appType=node;archiType=square;dashed=1;fontFamily=Ubuntu;fontColor=#CCCCCC;fontSource=https%3A%2F%2Ffonts.googleapis.com%2Fcss%3Ffamily%3DUbuntu;" vertex="1" parent="28">
                    <mxGeometry x="9" y="8" width="101" height="24" as="geometry"/>
                </mxCell>
                <mxCell id="26" value="" style="html=1;outlineConnect=0;whiteSpace=wrap;fillColor=#AFFFAF;shape=mxgraph.archimate3.application;appType=node;archiType=square;dashed=1;fontFamily=Ubuntu;fontColor=#CCCCCC;fontSource=https%3A%2F%2Ffonts.googleapis.com%2Fcss%3Ffamily%3DUbuntu;" vertex="1" parent="28">
                    <mxGeometry x="4" y="4" width="101" height="24" as="geometry"/>
                </mxCell>
                <mxCell id="25" value="&lt;font color=&quot;#000000&quot;&gt;Master (3)&lt;/font&gt;" style="html=1;outlineConnect=0;whiteSpace=wrap;fillColor=#AFFFAF;shape=mxgraph.archimate3.application;appType=node;archiType=square;dashed=1;fontFamily=Ubuntu;fontColor=#CCCCCC;fontSource=https%3A%2F%2Ffonts.googleapis.com%2Fcss%3Ffamily%3DUbuntu;" vertex="1" parent="28">
                    <mxGeometry width="101" height="24" as="geometry"/>
                </mxCell>
                <mxCell id="33" value="" style="group;fontFamily=Ubuntu;fontSource=https%3A%2F%2Ffonts.googleapis.com%2Fcss%3Ffamily%3DUbuntu;" vertex="1" connectable="0" parent="1">
                    <mxGeometry x="1133" y="643" width="110" height="32" as="geometry"/>
                </mxCell>
                <mxCell id="34" value="" style="html=1;outlineConnect=0;whiteSpace=wrap;fillColor=#AFFFAF;shape=mxgraph.archimate3.application;appType=node;archiType=square;dashed=1;fontFamily=Ubuntu;fontColor=#CCCCCC;fontSource=https%3A%2F%2Ffonts.googleapis.com%2Fcss%3Ffamily%3DUbuntu;" vertex="1" parent="33">
                    <mxGeometry x="9" y="8" width="101" height="24" as="geometry"/>
                </mxCell>
                <mxCell id="35" value="" style="html=1;outlineConnect=0;whiteSpace=wrap;fillColor=#AFFFAF;shape=mxgraph.archimate3.application;appType=node;archiType=square;dashed=1;fontFamily=Ubuntu;fontColor=#CCCCCC;fontSource=https%3A%2F%2Ffonts.googleapis.com%2Fcss%3Ffamily%3DUbuntu;" vertex="1" parent="33">
                    <mxGeometry x="4" y="4" width="101" height="24" as="geometry"/>
                </mxCell>
                <mxCell id="36" value="&lt;font color=&quot;#000000&quot;&gt;Ingest (X)&lt;/font&gt;" style="html=1;outlineConnect=0;whiteSpace=wrap;fillColor=#AFFFAF;shape=mxgraph.archimate3.application;appType=node;archiType=square;dashed=1;fontFamily=Ubuntu;fontColor=#CCCCCC;fontSource=https%3A%2F%2Ffonts.googleapis.com%2Fcss%3Ffamily%3DUbuntu;" vertex="1" parent="33">
                    <mxGeometry width="101" height="24" as="geometry"/>
                </mxCell>
                <mxCell id="37" value="" style="group;fontFamily=Ubuntu;fontSource=https%3A%2F%2Ffonts.googleapis.com%2Fcss%3Ffamily%3DUbuntu;" vertex="1" connectable="0" parent="1">
                    <mxGeometry x="1135" y="686" width="110" height="32" as="geometry"/>
                </mxCell>
                <mxCell id="38" value="" style="html=1;outlineConnect=0;whiteSpace=wrap;fillColor=#AFFFAF;shape=mxgraph.archimate3.application;appType=node;archiType=square;dashed=1;fontFamily=Ubuntu;fontColor=#CCCCCC;fontSource=https%3A%2F%2Ffonts.googleapis.com%2Fcss%3Ffamily%3DUbuntu;" vertex="1" parent="37">
                    <mxGeometry x="9" y="8" width="101" height="24" as="geometry"/>
                </mxCell>
                <mxCell id="39" value="" style="html=1;outlineConnect=0;whiteSpace=wrap;fillColor=#AFFFAF;shape=mxgraph.archimate3.application;appType=node;archiType=square;dashed=1;fontFamily=Ubuntu;fontColor=#CCCCCC;fontSource=https%3A%2F%2Ffonts.googleapis.com%2Fcss%3Ffamily%3DUbuntu;" vertex="1" parent="37">
                    <mxGeometry x="4" y="4" width="101" height="24" as="geometry"/>
                </mxCell>
                <mxCell id="40" value="&lt;font color=&quot;#000000&quot;&gt;Coordinating (X)&lt;/font&gt;" style="html=1;outlineConnect=0;whiteSpace=wrap;fillColor=#AFFFAF;shape=mxgraph.archimate3.application;appType=node;archiType=square;dashed=1;fontFamily=Ubuntu;fontColor=#CCCCCC;fontSource=https%3A%2F%2Ffonts.googleapis.com%2Fcss%3Ffamily%3DUbuntu;" vertex="1" parent="37">
                    <mxGeometry width="101" height="24" as="geometry"/>
                </mxCell>
                <mxCell id="41" value="" style="group;fontFamily=Ubuntu;fontSource=https%3A%2F%2Ffonts.googleapis.com%2Fcss%3Ffamily%3DUbuntu;" vertex="1" connectable="0" parent="1">
                    <mxGeometry x="1133" y="729" width="110" height="32" as="geometry"/>
                </mxCell>
                <mxCell id="42" value="" style="html=1;outlineConnect=0;whiteSpace=wrap;fillColor=#AFFFAF;shape=mxgraph.archimate3.application;appType=node;archiType=square;dashed=1;fontFamily=Ubuntu;fontColor=#CCCCCC;fontSource=https%3A%2F%2Ffonts.googleapis.com%2Fcss%3Ffamily%3DUbuntu;" vertex="1" parent="41">
                    <mxGeometry x="9" y="8" width="101" height="24" as="geometry"/>
                </mxCell>
                <mxCell id="43" value="" style="html=1;outlineConnect=0;whiteSpace=wrap;fillColor=#AFFFAF;shape=mxgraph.archimate3.application;appType=node;archiType=square;dashed=1;fontFamily=Ubuntu;fontColor=#CCCCCC;fontSource=https%3A%2F%2Ffonts.googleapis.com%2Fcss%3Ffamily%3DUbuntu;" vertex="1" parent="41">
                    <mxGeometry x="4" y="4" width="101" height="24" as="geometry"/>
                </mxCell>
                <mxCell id="44" value="&lt;font color=&quot;#000000&quot;&gt;Data - Hot (X)&lt;/font&gt;" style="html=1;outlineConnect=0;whiteSpace=wrap;fillColor=#AFFFAF;shape=mxgraph.archimate3.application;appType=node;archiType=square;dashed=1;fontFamily=Ubuntu;fontColor=#CCCCCC;fontSource=https%3A%2F%2Ffonts.googleapis.com%2Fcss%3Ffamily%3DUbuntu;" vertex="1" parent="41">
                    <mxGeometry width="101" height="24" as="geometry"/>
                </mxCell>
                <mxCell id="45" value="" style="group;fontFamily=Ubuntu;fontSource=https%3A%2F%2Ffonts.googleapis.com%2Fcss%3Ffamily%3DUbuntu;" vertex="1" connectable="0" parent="1">
                    <mxGeometry x="1132" y="772" width="110" height="32" as="geometry"/>
                </mxCell>
                <mxCell id="46" value="" style="html=1;outlineConnect=0;whiteSpace=wrap;fillColor=#AFFFAF;shape=mxgraph.archimate3.application;appType=node;archiType=square;dashed=1;fontFamily=Ubuntu;fontColor=#CCCCCC;fontSource=https%3A%2F%2Ffonts.googleapis.com%2Fcss%3Ffamily%3DUbuntu;" vertex="1" parent="45">
                    <mxGeometry x="9" y="8" width="101" height="24" as="geometry"/>
                </mxCell>
                <mxCell id="47" value="" style="html=1;outlineConnect=0;whiteSpace=wrap;fillColor=#AFFFAF;shape=mxgraph.archimate3.application;appType=node;archiType=square;dashed=1;fontFamily=Ubuntu;fontColor=#CCCCCC;fontSource=https%3A%2F%2Ffonts.googleapis.com%2Fcss%3Ffamily%3DUbuntu;" vertex="1" parent="45">
                    <mxGeometry x="4" y="4" width="101" height="24" as="geometry"/>
                </mxCell>
                <mxCell id="48" value="&lt;font color=&quot;#000000&quot;&gt;Data - Warm (X)&lt;/font&gt;" style="html=1;outlineConnect=0;whiteSpace=wrap;fillColor=#AFFFAF;shape=mxgraph.archimate3.application;appType=node;archiType=square;dashed=1;fontFamily=Ubuntu;fontColor=#CCCCCC;fontSource=https%3A%2F%2Ffonts.googleapis.com%2Fcss%3Ffamily%3DUbuntu;" vertex="1" parent="45">
                    <mxGeometry width="101" height="24" as="geometry"/>
                </mxCell>
                <mxCell id="49" value="" style="group;fontFamily=Ubuntu;fontSource=https%3A%2F%2Ffonts.googleapis.com%2Fcss%3Ffamily%3DUbuntu;" vertex="1" connectable="0" parent="1">
                    <mxGeometry x="1133" y="819" width="110" height="32" as="geometry"/>
                </mxCell>
                <mxCell id="50" value="" style="html=1;outlineConnect=0;whiteSpace=wrap;fillColor=#AFFFAF;shape=mxgraph.archimate3.application;appType=node;archiType=square;dashed=1;fontFamily=Ubuntu;fontColor=#CCCCCC;fontSource=https%3A%2F%2Ffonts.googleapis.com%2Fcss%3Ffamily%3DUbuntu;" vertex="1" parent="49">
                    <mxGeometry x="9" y="8" width="101" height="24" as="geometry"/>
                </mxCell>
                <mxCell id="51" value="" style="html=1;outlineConnect=0;whiteSpace=wrap;fillColor=#AFFFAF;shape=mxgraph.archimate3.application;appType=node;archiType=square;dashed=1;fontFamily=Ubuntu;fontColor=#CCCCCC;fontSource=https%3A%2F%2Ffonts.googleapis.com%2Fcss%3Ffamily%3DUbuntu;" vertex="1" parent="49">
                    <mxGeometry x="4" y="4" width="101" height="24" as="geometry"/>
                </mxCell>
                <mxCell id="52" value="&lt;font color=&quot;#000000&quot;&gt;Alerting (X)&lt;/font&gt;" style="html=1;outlineConnect=0;whiteSpace=wrap;fillColor=#AFFFAF;shape=mxgraph.archimate3.application;appType=node;archiType=square;dashed=1;fontFamily=Ubuntu;fontColor=#CCCCCC;fontSource=https%3A%2F%2Ffonts.googleapis.com%2Fcss%3Ffamily%3DUbuntu;" vertex="1" parent="49">
                    <mxGeometry width="101" height="24" as="geometry"/>
                </mxCell>
                <mxCell id="58" value="&lt;h1&gt;Requirements&lt;/h1&gt;&lt;div&gt;&lt;br&gt;&lt;/div&gt;&lt;div style=&quot;font-size: 16px;&quot;&gt;&lt;font style=&quot;font-size: 16px;&quot;&gt;How ALA solution looks like?&lt;/font&gt;&lt;/div&gt;&lt;p style=&quot;font-size: 16px;&quot;&gt;&lt;font style=&quot;font-size: 16px;&quot;&gt;1. Security?&amp;nbsp; (RBAC or&amp;nbsp; IDP (Identity Management) Integration OpenID/OAth/KeyClack JWT)?&lt;/font&gt;&lt;/p&gt;&lt;p style=&quot;font-size: 15px;&quot;&gt;&lt;font style=&quot;font-size: 15px;&quot;&gt;2. Data Retention and Data Size?&amp;nbsp; 5TB, 30天，90天，180天，热层7天&lt;/font&gt;&lt;/p&gt;&lt;p style=&quot;font-size: 15px;&quot;&gt;&lt;font style=&quot;font-size: 15px;&quot;&gt;3. What's the current high concurreny metrics in ALA?&amp;nbsp; QPS, TPS, RT, etc.&lt;/font&gt;&lt;/p&gt;&lt;p style=&quot;font-size: 15px;&quot;&gt;&lt;font style=&quot;font-size: 15px;&quot;&gt;4. All deployment is based on AKS? Yes&lt;/font&gt;&lt;/p&gt;&lt;p style=&quot;font-size: 15px;&quot;&gt;&lt;font style=&quot;font-size: 15px;&quot;&gt;5. Do we have free Azuer subscrption in DXC as a lab? Customer provided.&lt;/font&gt;&lt;/p&gt;&lt;p style=&quot;font-size: 15px;&quot;&gt;6. Is it include deployment automation? Ansible and Helm Charts development.&lt;/p&gt;&lt;p style=&quot;font-size: 15px;&quot;&gt;需要&lt;/p&gt;&lt;p style=&quot;font-size: 15px;&quot;&gt;7. what kind of Kibana dashboards needed?&lt;/p&gt;&lt;p style=&quot;font-size: 15px;&quot;&gt;集群本身的监控&lt;/p&gt;&lt;p style=&quot;font-size: 15px;&quot;&gt;8. Variety of log data sources? logfile, syslog, database...?&lt;/p&gt;&lt;p style=&quot;font-size: 15px;&quot;&gt;POD Console Log, 虚拟机的Syslog, nginx log(filebeat), Hashcorp Vault日志&lt;/p&gt;&lt;p style=&quot;font-size: 15px;&quot;&gt;&amp;nbsp;&lt;/p&gt;&lt;p style=&quot;font-size: 15px;&quot;&gt;&lt;br&gt;&lt;/p&gt;" style="text;html=1;strokeColor=none;fillColor=none;spacing=5;spacingTop=-20;whiteSpace=wrap;overflow=hidden;rounded=0;dashed=1;fontFamily=Ubuntu;fontSource=https%3A%2F%2Ffonts.googleapis.com%2Fcss%3Ffamily%3DUbuntu;fontColor=#000000;" vertex="1" parent="1">
                    <mxGeometry x="86" y="576" width="635" height="489" as="geometry"/>
                </mxCell>
                <mxCell id="59" value="Console 日志收集&amp;nbsp; &amp;nbsp; &amp;nbsp; &amp;nbsp;AMA(Container Insight) -" style="rounded=1;whiteSpace=wrap;html=1;dashed=1;strokeColor=#006EAF;fontFamily=Ubuntu;fontSource=https%3A%2F%2Ffonts.googleapis.com%2Fcss%3Ffamily%3DUbuntu;fontSize=16;fontColor=#000000;fillColor=#00CCCC;" vertex="1" parent="1">
                    <mxGeometry x="150" y="453" width="513" height="60" as="geometry"/>
                </mxCell>
            </root>
        </mxGraphModel>
    </diagram>
</mxfile>